<?xml version="1.0" encoding="UTF-8" standalone="no"?>
<svg width="526px" height="495px" viewBox="0 0 526 495" version="1.1" xmlns="http://www.w3.org/2000/svg" xmlns:xlink="http://www.w3.org/1999/xlink">
    <!-- Generator: Sketch 39.1 (31720) - http://www.bohemiancoding.com/sketch -->
    <title>icon</title>
    <desc>Created with Sketch.</desc>
    <defs>
        <path d="M178.014135,542.8442 C79.6878521,537.406423 1.20156705,472.537738 0.0136655651,465.574014 C-0.174028358,464.473713 1.56806742,464.819036 5.46660657,467.072834 C69.5178945,504.101734 155.495741,536.87471 169.349564,501.629764 C183.203387,466.384817 165.756689,449.170721 165.756689,449.170721 L178.02002,436.709171 L178.02002,8.00987802 C178.02002,3.58614454 181.60191,0 186.016118,0 L195.023922,0 C199.440045,0 203.02002,3.58748179 203.02002,8.00987802 L203.02002,436.749858 L215.243311,449.170721 C215.243311,449.170721 197.796613,466.384817 211.650436,501.629764 C225.504259,536.87471 311.482105,504.101734 375.533393,467.072834 C379.431933,464.819036 381.174028,464.473713 380.986334,465.574014 C379.79857,472.536931 301.330323,537.391402 203.02002,542.842309 L203.02002,550 L178.014135,550 L178.014135,542.8442 Z" id="path-1"></path>
        <filter x="-50%" y="-50%" width="200%" height="200%" filterUnits="objectBoundingBox" id="filter-2">
            <feMorphology radius="5" operator="dilate" in="SourceAlpha" result="shadowSpreadOuter1"></feMorphology>
            <feOffset dx="0" dy="-2" in="shadowSpreadOuter1" result="shadowOffsetOuter1"></feOffset>
            <feComposite in="shadowOffsetOuter1" in2="SourceAlpha" operator="out" result="shadowOffsetOuter1"></feComposite>
            <feColorMatrix values="0 0 0 0 1   0 0 0 0 1   0 0 0 0 1  0 0 0 1 0" type="matrix" in="shadowOffsetOuter1" result="shadowMatrixOuter1"></feColorMatrix>
            <feMorphology radius="5" operator="dilate" in="SourceAlpha" result="shadowSpreadOuter2"></feMorphology>
            <feOffset dx="0" dy="2" in="shadowSpreadOuter2" result="shadowOffsetOuter2"></feOffset>
            <feComposite in="shadowOffsetOuter2" in2="SourceAlpha" operator="out" result="shadowOffsetOuter2"></feComposite>
            <feColorMatrix values="0 0 0 0 1   0 0 0 0 1   0 0 0 0 1  0 0 0 1 0" type="matrix" in="shadowOffsetOuter2" result="shadowMatrixOuter2"></feColorMatrix>
            <feMorphology radius="5" operator="dilate" in="SourceAlpha" result="shadowSpreadOuter3"></feMorphology>
            <feOffset dx="-2" dy="0" in="shadowSpreadOuter3" result="shadowOffsetOuter3"></feOffset>
            <feComposite in="shadowOffsetOuter3" in2="SourceAlpha" operator="out" result="shadowOffsetOuter3"></feComposite>
            <feColorMatrix values="0 0 0 0 1   0 0 0 0 1   0 0 0 0 1  0 0 0 1 0" type="matrix" in="shadowOffsetOuter3" result="shadowMatrixOuter3"></feColorMatrix>
            <feMorphology radius="5" operator="dilate" in="SourceAlpha" result="shadowSpreadOuter4"></feMorphology>
            <feOffset dx="2" dy="0" in="shadowSpreadOuter4" result="shadowOffsetOuter4"></feOffset>
            <feComposite in="shadowOffsetOuter4" in2="SourceAlpha" operator="out" result="shadowOffsetOuter4"></feComposite>
            <feColorMatrix values="0 0 0 0 1   0 0 0 0 1   0 0 0 0 1  0 0 0 1 0" type="matrix" in="shadowOffsetOuter4" result="shadowMatrixOuter4"></feColorMatrix>
            <feMerge>
                <feMergeNode in="shadowMatrixOuter1"></feMergeNode>
                <feMergeNode in="shadowMatrixOuter2"></feMergeNode>
                <feMergeNode in="shadowMatrixOuter3"></feMergeNode>
                <feMergeNode in="shadowMatrixOuter4"></feMergeNode>
            </feMerge>
        </filter>
        <path d="M88,26.3409962 L88,368.243144 L102.661611,380.463436 L151,380.463436 L151,458.969183 L150.981701,458.969183 C150.993874,459.282034 151,459.596905 151,459.913793 C151,509.667031 122.720346,550 75.5,550 C28.2796539,550 0,509.667031 0,459.913793 C0,459.596905 0.00612558115,459.282034 0.0182987133,458.969182 L0,458.969183 L0,380.463436 L48.850405,380.463436 L63,368.264155 L63,26.3409962 L38.0066703,26.3409962 C33.5847084,26.3409962 30,22.7611187 30,18.3484495 L30,7.99254664 C30,3.57838502 33.5836453,0 38.0066703,0 L111.99333,0 C116.415292,0 120,3.57987749 120,7.99254664 L120,18.3484495 C120,22.7626112 116.416355,26.3409962 111.99333,26.3409962 L88,26.3409962 Z" id="path-3"></path>
        <filter x="-50%" y="-50%" width="200%" height="200%" filterUnits="objectBoundingBox" id="filter-4">
            <feMorphology radius="5" operator="dilate" in="SourceAlpha" result="shadowSpreadOuter1"></feMorphology>
            <feOffset dx="0" dy="-2" in="shadowSpreadOuter1" result="shadowOffsetOuter1"></feOffset>
            <feComposite in="shadowOffsetOuter1" in2="SourceAlpha" operator="out" result="shadowOffsetOuter1"></feComposite>
            <feColorMatrix values="0 0 0 0 1   0 0 0 0 1   0 0 0 0 1  0 0 0 1 0" type="matrix" in="shadowOffsetOuter1" result="shadowMatrixOuter1"></feColorMatrix>
            <feMorphology radius="5" operator="dilate" in="SourceAlpha" result="shadowSpreadOuter2"></feMorphology>
            <feOffset dx="0" dy="2" in="shadowSpreadOuter2" result="shadowOffsetOuter2"></feOffset>
            <feComposite in="shadowOffsetOuter2" in2="SourceAlpha" operator="out" result="shadowOffsetOuter2"></feComposite>
            <feColorMatrix values="0 0 0 0 1   0 0 0 0 1   0 0 0 0 1  0 0 0 1 0" type="matrix" in="shadowOffsetOuter2" result="shadowMatrixOuter2"></feColorMatrix>
            <feMorphology radius="5" operator="dilate" in="SourceAlpha" result="shadowSpreadOuter3"></feMorphology>
            <feOffset dx="-2" dy="0" in="shadowSpreadOuter3" result="shadowOffsetOuter3"></feOffset>
            <feComposite in="shadowOffsetOuter3" in2="SourceAlpha" operator="out" result="shadowOffsetOuter3"></feComposite>
            <feColorMatrix values="0 0 0 0 1   0 0 0 0 1   0 0 0 0 1  0 0 0 1 0" type="matrix" in="shadowOffsetOuter3" result="shadowMatrixOuter3"></feColorMatrix>
            <feMorphology radius="5" operator="dilate" in="SourceAlpha" result="shadowSpreadOuter4"></feMorphology>
            <feOffset dx="2" dy="0" in="shadowSpreadOuter4" result="shadowOffsetOuter4"></feOffset>
            <feComposite in="shadowOffsetOuter4" in2="SourceAlpha" operator="out" result="shadowOffsetOuter4"></feComposite>
            <feColorMatrix values="0 0 0 0 1   0 0 0 0 1   0 0 0 0 1  0 0 0 1 0" type="matrix" in="shadowOffsetOuter4" result="shadowMatrixOuter4"></feColorMatrix>
            <feMerge>
                <feMergeNode in="shadowMatrixOuter1"></feMergeNode>
                <feMergeNode in="shadowMatrixOuter2"></feMergeNode>
                <feMergeNode in="shadowMatrixOuter3"></feMergeNode>
                <feMergeNode in="shadowMatrixOuter4"></feMergeNode>
            </feMerge>
        </filter>
    </defs>
    <g id="SocialDig.js---Project" stroke="none" stroke-width="1" fill="none" fill-rule="evenodd">
        <g id="icon-group" transform="translate(-101.000000, -152.000000)">
            <g id="icon" transform="translate(50.000000, 117.000000)">
                <g transform="translate(1.000000, -15.000000)">
                    <g id="post" transform="translate(84.000000, 135.000000)" stroke="#74728C">
                        <g id="Combined-Shape">
                            <path d="M0,0 L489,0 L489,341 L0,341 L0,0 Z M30,69 L459,69 L459,235 L30,235 L30,69 Z M60,314 C76.5685425,314 90,300.568542 90,284 C90,267.431458 76.5685425,254 60,254 C43.4314575,254 30,267.431458 30,284 C30,300.568542 43.4314575,314 60,314 Z M119,266 L459,266 L459,302 L119,302 L119,266 Z M30,31 L179,31 L179,50 L30,50 L30,31 Z M399,31 L459,31 L459,50 L399,50 L399,31 Z" stroke-width="5"></path>
                        </g>
                    </g>
                    <g id="pickaxe" transform="translate(329.500000, 330.000000) rotate(-45.000000) translate(-329.500000, -330.000000) translate(139.000000, 55.000000)">
                        <g transform="translate(190.500000, 275.000000) rotate(-180.000000) translate(-190.500000, -275.000000) translate(-0.000000, 0.000000)" id="Combined-Shape">
                            <g>
                                <use fill="black" fill-opacity="1" filter="url(#filter-2)" xlink:href="#path-1"></use>
                                <use stroke="#FF7172" stroke-width="5" fill="#FFFFFF" fill-rule="evenodd" xlink:href="#path-1"></use>
                            </g>
                        </g>
                    </g>
                    <g id="shovel" transform="translate(340.182720, 312.682720) rotate(-315.000000) translate(-340.182720, -312.682720) translate(264.682720, 37.682720)">
                        <g transform="translate(75.500000, 275.000000) rotate(-180.000000) translate(-75.500000, -275.000000) translate(-0.000000, 0.000000)" id="Combined-Shape">
                            <g>
                                <use fill="black" fill-opacity="1" filter="url(#filter-4)" xlink:href="#path-3"></use>
                                <use stroke="#FF7172" stroke-width="5" fill="#FFFFFF" fill-rule="evenodd" xlink:href="#path-3"></use>
                            </g>
                        </g>
                    </g>
                </g>
            </g>
        </g>
    </g>
</svg>